<svg width="417" height="70" viewBox="0 0 417 70" fill="none" xmlns="http://www.w3.org/2000/svg">
<path d="M0 66.9106H7.41V3.79063H0V2.39062H26.24C41.66 2.39062 49.97 8.26062 49.97 18.0206C49.97 26.3806 43.16 32.5606 31.24 33.3506C44.76 34.6406 51.97 40.6206 51.97 50.2806C51.97 60.4406 43.46 68.3006 29.54 68.3006H0V66.9106ZM21.53 32.6606C34.35 32.6606 40.36 28.6806 40.36 19.1206C40.36 10.0606 34.05 3.89062 22.64 3.89062H17.33V32.5706C18.83 32.6606 20.23 32.6606 21.53 32.6606ZM21.63 66.9106C34.85 66.9106 41.26 61.8306 41.26 49.9906C41.26 39.2406 34.05 33.7606 19.93 33.7606C19.13 33.7606 18.23 33.8606 17.32 33.8606V66.9106H21.63V66.9106Z" fill="white"/>
<path d="M62.1903 33.5583C65.9903 29.5783 70.6003 27.4883 75.6103 27.4883C86.0203 27.4883 95.0303 37.1483 95.0303 48.4983C95.0303 53.9783 92.9303 59.1483 88.9203 63.4283C85.2103 67.4083 80.7103 69.3983 75.6003 69.3983C70.5903 69.3983 65.9903 67.4083 62.1803 63.4283C58.1703 59.2483 56.0703 53.9683 56.0703 48.4983C56.0803 43.0183 58.1803 37.7383 62.1903 33.5583ZM75.6103 68.0083C82.8203 68.0083 86.0203 63.6283 86.0203 54.4683V42.4183C86.0203 33.2583 82.8203 28.8783 75.6103 28.8783C68.4003 28.8783 65.0903 33.2583 65.0903 42.4183V54.4683C65.0903 63.6283 68.3903 68.0083 75.6103 68.0083Z" fill="white"/>
<path d="M131.78 69.1983C127.57 69.1983 124.67 66.9083 123.77 62.9283C121.17 67.3083 116.46 69.4983 109.55 69.4983C102.84 69.4983 98.0303 65.1183 98.0303 59.5383C98.0303 51.1783 106.64 46.0983 122.86 46.0983C123.06 46.0983 123.16 46.0983 123.36 46.0983V36.0483C123.36 31.1683 121.26 28.8783 115.65 28.8783C110.24 28.8783 107.04 32.2583 107.04 33.7583C107.04 34.5583 109.84 35.3483 109.84 38.1383C109.84 41.0283 108.14 42.8183 105.54 42.8183C102.74 42.8183 100.93 40.9283 100.93 38.1383C100.93 32.5583 106.84 27.4883 115.85 27.4883C120.25 27.4883 123.86 28.6883 127.06 30.9683C130.86 33.7583 131.17 36.0483 131.17 40.5283V60.5383C131.17 64.8283 132.17 66.8083 134.17 66.8083C135.97 66.8083 137.38 65.5183 139.28 63.0183L140.38 64.0183C137.59 67.5083 135.08 69.1983 131.78 69.1983ZM123.37 47.5983C122.27 47.4983 121.27 47.4983 120.37 47.4983C111.16 47.4983 106.75 50.9783 106.75 58.4483C106.75 64.1283 109.35 67.3083 113.76 67.3083C117.56 67.3083 121.37 65.0183 123.37 61.0283V47.5983Z" fill="white"/>
<path d="M138.59 66.9088H144.3V30.0688H138.59V28.6687H143.4C147.61 28.6687 150.71 28.2688 152.71 27.4688V37.8287C155.51 30.8587 159.02 27.4688 163.72 27.4688C167.63 27.4688 170.13 29.6587 170.13 32.6487C170.13 35.6387 168.53 37.4288 166.12 37.4288C163.72 37.4288 161.61 35.5388 161.61 33.2488C161.61 31.9588 162.31 30.7587 163.51 29.3687C163.11 29.2687 162.71 29.1687 162.31 29.1687C158.71 29.1687 154.7 34.2488 152.7 43.6088V66.9088H158.21V68.2988H138.58V66.9088H138.59Z" fill="white"/>
<path d="M188.8 69.5C177.79 69.5 169.77 61.14 169.77 48.39C169.77 36.64 178.48 27.58 187.89 27.58C193.6 27.58 198.4 30.77 201.21 36.74V3.79H195.5V2.39H200.31C203.71 2.39 206.62 1.69 209.62 0V66.9H215.43V68.29H201.31V61.72C197.91 66.91 193.9 69.5 188.8 69.5ZM188.3 68.01C194.11 68.01 198.51 64.63 201.22 58.15V40.33C198.62 33.26 193.91 29.38 188.5 29.38C182.09 29.38 178.89 33.86 178.89 42.72V54.17C178.89 63.63 181.39 68.01 188.3 68.01Z" fill="white"/>
<path d="M215.43 66.9106H222.94V3.79063H215.43V2.39062H243.26C258.58 2.39062 266.29 7.87062 266.29 18.0206C266.29 26.9806 259.88 32.4606 247.56 33.6506C259.18 35.3406 263.18 39.7206 264.38 50.4806C265.48 60.7306 264.98 66.9106 270.69 66.9106C271.99 66.9106 273.1 66.7106 274.3 66.2106L274.9 67.5006C271.89 68.5006 268.99 68.9906 265.99 68.9906C261.88 68.9906 258.98 67.5006 256.88 64.3106C253.98 59.8306 254.18 53.4606 253.08 45.7906C251.88 37.1306 247.77 34.7406 236.46 34.7406H233.15V66.9006H240.16V68.2906H215.43V66.9106V66.9106ZM233.16 33.2606H236.47C249.69 33.2606 256.1 28.6806 256.1 18.8206C256.1 7.97062 251.09 3.79063 239.98 3.79063H233.17V33.2606H233.16Z" fill="white"/>
<path d="M324.18 27.4788C319.17 27.4788 314.57 29.5687 310.76 33.5487C309.41 34.9587 308.3 36.4987 307.39 38.1187C303.96 31.8287 297.62 27.4688 290.64 27.4688C285.63 27.4688 281.03 29.5587 277.22 33.5387C273.21 37.7187 271.11 42.9987 271.11 48.4687C271.11 53.9487 273.21 59.2188 277.22 63.3988C281.02 67.3788 285.63 69.3688 290.64 69.3688C295.75 69.3688 300.25 67.3788 303.96 63.3988C305.32 61.9488 306.44 60.3888 307.35 58.7488C308.27 60.3988 309.4 61.9688 310.77 63.3988C314.57 67.3788 319.18 69.3688 324.19 69.3688C329.3 69.3688 333.8 67.3788 337.51 63.3988C341.51 59.1188 343.62 53.9387 343.62 48.4687C343.6 37.1387 334.59 27.4788 324.18 27.4788ZM301.05 54.4687C301.05 63.6287 297.85 68.0088 290.64 68.0088C283.43 68.0088 280.13 63.6287 280.13 54.4687V42.4187C280.13 33.2587 283.43 28.8787 290.64 28.8787C297.85 28.8787 301.05 33.2587 301.05 42.4187V54.4687ZM334.59 54.4687C334.59 63.6287 331.38 68.0088 324.17 68.0088C316.96 68.0088 313.66 63.6287 313.66 54.4687V42.4187C313.66 33.2587 316.96 28.8787 324.17 28.8787C331.38 28.8787 334.59 33.2587 334.59 42.4187V54.4687Z" fill="#49A942"/>
<path d="M343.1 30.0688V28.6687H347.9C352.11 28.6687 355.21 28.2688 357.21 27.4688V36.3287C360.92 30.3587 365.42 27.4688 371.33 27.4688C378.04 27.4688 382.75 31.0487 383.75 36.8287C387.65 30.5587 392.26 27.4688 398.27 27.4688C406.08 27.4688 410.99 32.1487 410.99 39.9187V66.8988H416.8V68.2887H397.07V66.8988H402.68V37.0387C402.68 31.7587 401.68 29.3687 397.17 29.3687C391.96 29.3687 387.96 32.5587 384.05 39.1287V66.9088H389.86V68.2988H370.14V66.9088H375.75V37.0387C375.75 31.7587 374.75 29.3687 370.24 29.3687C365.03 29.3687 360.83 32.5587 357.22 39.1287V66.9088H362.73V68.2988H343.11V66.9088H348.81V30.0688H343.1Z" fill="white"/>
</svg>
